# xmcd
# 
# Track frame offsets:
#     150
#     15299
#     36521
#     62097
#     85835
#     115854
#     187910
# 
# Disc length: 3074
# 
# Revision: 0
# Processed by: cddbd v1.5.2PL0 Copyright (c) Steve Scherf et al.
# Submitted via: fre:ac v1.0.17
# 
DISCID=4e0c0007
DTITLE=Quicksand Dream - Aelin - A Story About Destiny
DYEAR=0
DGENRE=
TTITLE0=Prologue
TTITLE1=A Child Was Born
TTITLE2=House Of Wisdom
TTITLE3=Caress Of The Breeze
TTITLE4=Road Goes Ever On
TTITLE5=The Lighthouse Dream
TTITLE6=Aelin's Oath
EXTD=
EXTT0=
EXTT1=
EXTT2=
EXTT3=
EXTT4=
EXTT5=
EXTT6=
PLAYORDER=
